<?xml version="1.0" encoding="utf-8"?>
<svg xmlns="http://www.w3.org/2000/svg" viewBox="0 0 400 400">
  <path d="M 200 200 L 210 200" style="stroke:rgb(255,0,0);stroke-width:1" />
  <path d="M 210 200 L 219.84808 201.73648" style="stroke:rgb(255,0,0);stroke-width:1" />
  <path d="M 219.84808 201.73648 L 229.24501 205.15668" style="stroke:rgb(255,0,0);stroke-width:1" />
  <path d="M 229.24501 205.15668 L 237.90526 210.15668" style="stroke:rgb(255,0,0);stroke-width:1" />
  <path d="M 237.90526 210.15668 L 245.5657 216.58456" style="stroke:rgb(255,0,0);stroke-width:1" />
  <path d="M 245.5657 216.58456 L 251.99358 224.24501" style="stroke:rgb(255,0,0);stroke-width:1" />
  <path d="M 251.99358 224.24501 L 256.9936 232.90526" style="stroke:rgb(255,0,0);stroke-width:1" />
  <path d="M 256.9936 232.90526 L 260.4138 242.30219" style="stroke:rgb(255,0,0);stroke-width:1" />
  <path d="M 260.4138 242.30219 L 262.15027 252.15027" style="stroke:rgb(255,0,0);stroke-width:1" />
  <path d="M 262.15027 252.15027 L 262.15027 262.15027" style="stroke:rgb(255,0,0);stroke-width:1" />
  <path d="M 262.15027 262.15027 L 260.4138 271.99835" style="stroke:rgb(255,0,0);stroke-width:1" />
  <path d="M 260.4138 271.99835 L 256.9936 281.39526" style="stroke:rgb(255,0,0);stroke-width:1" />
  <path d="M 256.9936 281.39526 L 251.99358 290.0555" style="stroke:rgb(255,0,0);stroke-width:1" />
  <path d="M 251.99358 290.0555 L 245.5657 297.71597" style="stroke:rgb(255,0,0);stroke-width:1" />
  <path d="M 245.5657 297.71597 L 237.90526 304.14383" style="stroke:rgb(255,0,0);stroke-width:1" />
  <path d="M 237.90526 304.14383 L 229.24501 309.14383" style="stroke:rgb(255,0,0);stroke-width:1" />
  <path d="M 229.24501 309.14383 L 219.84808 312.56406" style="stroke:rgb(255,0,0);stroke-width:1" />
  <path d="M 219.84808 312.56406 L 210 314.30054" style="stroke:rgb(255,0,0);stroke-width:1" />
  <path d="M 210 314.30054 L 200 314.30054" style="stroke:rgb(255,0,0);stroke-width:1" />
  <path d="M 200 314.30054 L 190.15192 312.56406" style="stroke:rgb(255,0,0);stroke-width:1" />
  <path d="M 190.15192 312.56406 L 180.75499 309.14383" style="stroke:rgb(255,0,0);stroke-width:1" />
  <path d="M 180.75499 309.14383 L 172.09474 304.14383" style="stroke:rgb(255,0,0);stroke-width:1" />
  <path d="M 172.09474 304.14383 L 164.4343 297.71597" style="stroke:rgb(255,0,0);stroke-width:1" />
  <path d="M 164.4343 297.71597 L 158.00642 290.0555" style="stroke:rgb(255,0,0);stroke-width:1" />
  <path d="M 158.00642 290.0555 L 153.00642 281.39526" style="stroke:rgb(255,0,0);stroke-width:1" />
  <path d="M 153.00642 281.39526 L 149.58623 271.99835" style="stroke:rgb(255,0,0);stroke-width:1" />
  <path d="M 149.58623 271.99835 L 147.84973 262.15027" style="stroke:rgb(255,0,0);stroke-width:1" />
  <path d="M 147.84973 262.15027 L 147.84973 252.15027" style="stroke:rgb(255,0,0);stroke-width:1" />
  <path d="M 147.84973 252.15027 L 149.58623 242.30219" style="stroke:rgb(255,0,0);stroke-width:1" />
  <path d="M 149.58623 242.30219 L 153.00642 232.90526" style="stroke:rgb(255,0,0);stroke-width:1" />
  <path d="M 153.00642 232.90526 L 158.00642 224.24501" style="stroke:rgb(255,0,0);stroke-width:1" />
  <path d="M 158.00642 224.24501 L 164.4343 216.58456" style="stroke:rgb(255,0,0);stroke-width:1" />
  <path d="M 164.4343 216.58456 L 172.09474 210.15668" style="stroke:rgb(255,0,0);stroke-width:1" />
  <path d="M 172.09474 210.15668 L 180.75499 205.15668" style="stroke:rgb(255,0,0);stroke-width:1" />
  <path d="M 180.75499 205.15668 L 190.15192 201.73648" style="stroke:rgb(255,0,0);stroke-width:1" />
  <path d="M 190.15192 201.73648 L 200 200" style="stroke:rgb(255,0,0);stroke-width:1" />
 
</svg>